<?xml version="1.0" encoding="UTF-8"?>
<!-- Created with Inkscape (http://www.inkscape.org/) -->
<svg width="192" height="192" version="1.1" viewBox="0 0 50.8 50.8" xml:space="preserve" xmlns="http://www.w3.org/2000/svg"><rect width="50.8" height="50.8" stroke-linecap="round" stroke-linejoin="round" stroke-width="2.056"/><g transform="matrix(.33455 0 0 .33455 -2.894 11.629)" stroke-width="1.5"><path d="m103.43 25.028s-17.983-0.15642-24.616 0c-6.6328 0.15643-13.294 4.9929-13.336 13.1-0.05879 11.4-0.05879 17.95-0.05879 17.95h24.968c5.3584 0 13.277-4.755 13.277-14.297 0-11.337-0.23496-16.753-0.23496-16.753z" fill="#ff009d" opacity=".66825"/><path d="m103.49 46.852s-17.983-0.15643-24.616 0c-6.6328 0.15643-13.294 4.9929-13.336 13.1-0.05879 11.4-0.05879 17.95-0.05879 17.95h24.968c5.3584 0 13.277-4.755 13.277-14.297 0-11.337-0.23502-16.753-0.23502-16.753z" fill="#ff009d" opacity=".33412"/><path d="m103.22 4.4935s-17.854-0.15643-24.439 0c-6.5853 0.1564-13.199 4.9929-13.24 13.1-0.05834 11.4-0.05834 17.95-0.05834 17.95h24.788c5.32 0 13.182-4.755 13.182-14.297 0-11.337-0.23334-16.753-0.23334-16.753z" fill="#fff"/></g></svg>
