<?xml version="1.0" encoding="UTF-8"?>
<!-- Created with Inkscape (http://www.inkscape.org/) -->
<svg width="511.83" height="185.35" version="1.1" viewBox="0 0 135.42 49.042" xmlns="http://www.w3.org/2000/svg">
 <g transform="translate(-.030249 -15.639)">
  <g stroke-linecap="round" stroke-width=".66458">
   <path transform="scale(.96581 1.0354)" d="m24.907 42.818h-24.508v9.715c0 5.9063 3.6707 9.6046 9.6598 9.6046h14.849v-4.5815h-14.766c-2.8703 0-4.2227-1.0212-4.8023-2.8979h19.071v-4.3331h-19.32v-2.9531h19.816zm26.744 14.738h-19.43v-5.0231c0-3.4499 1.6836-5.1611 5.0507-5.1611h14.379v-4.5539h-14.462c-6.1547 0-9.6598 3.5879-9.6598 9.6322v9.6874h24.122zm27.379-14.738h-4.6919v7.5071h-14.987v-7.5071h-4.6919v19.32h4.6919v-7.4519h14.987v7.4519h4.6919zm24.37 9.6322c0 4.0019-1.2696 5.1059-5.0507 5.1059h-11.205v-5.0231c0-3.9743 1.1868-5.1611 5.0507-5.1611h11.205zm-11.288-9.6322c-6.0995 0-9.6598 3.7259-9.6598 9.6322v9.6874h16.008c6.1271 0 9.6322-3.5879 9.6322-9.6046v-9.715z" fill="none" opacity=".35782" stroke="#ff009d" aria-label="ECHO"/>
   <path transform="scale(.96581 1.0354)" d="m24.872 29.189h-24.508v9.715c0 5.9063 3.6707 9.6046 9.6598 9.6046h14.849v-4.5815h-14.766c-2.8703 0-4.2227-1.0212-4.8023-2.8979h19.071v-4.3331h-19.32v-2.9531h19.816zm26.744 14.738h-19.43v-5.0231c0-3.4499 1.6836-5.1611 5.0507-5.1611h14.379v-4.5539h-14.462c-6.1547 0-9.6598 3.5879-9.6598 9.6322v9.6874h24.122zm27.379-14.738h-4.6919v7.5071h-14.987v-7.5071h-4.6919v19.32h4.6919v-7.4519h14.987v7.4519h4.6919zm24.37 9.6322c0 4.0019-1.2696 5.1059-5.0507 5.1059h-11.205v-5.0231c0-3.9743 1.1868-5.1611 5.0507-5.1611h11.205zm-11.288-9.6322c-6.0995 0-9.6598 3.7259-9.6598 9.6322v9.6874h16.008c6.1271 0 9.6322-3.5879 9.6322-9.6046v-9.715z" fill="none" opacity=".67772" stroke="#ff009d" aria-label="ECHO"/>
   <path transform="scale(.96581 1.0354)" d="m24.884 15.523h-24.508v9.715c0 5.9063 3.6707 9.6046 9.6598 9.6046h14.849v-4.5815h-14.766c-2.8703 0-4.2227-1.0212-4.8023-2.8979h19.071v-4.3331h-19.32v-2.9531h19.816zm26.744 14.738h-19.43v-5.0231c0-3.4499 1.6836-5.1611 5.0507-5.1611h14.379v-4.5539h-14.462c-6.1547 0-9.6598 3.5879-9.6598 9.6322v9.6874h24.122zm27.379-14.738h-4.6919v7.5071h-14.987v-7.5071h-4.6919v19.32h4.6919v-7.4519h14.987v7.4519h4.6919zm24.37 9.6322c0 4.0019-1.2696 5.1059-5.0507 5.1059h-11.205v-5.0231c0-3.9743 1.1868-5.1611 5.0507-5.1611h11.205zm-11.288-9.6322c-6.0995 0-9.6598 3.7259-9.6598 9.6322v9.6874h16.008c6.1271 0 9.6322-3.5879 9.6322-9.6046v-9.715z" fill="#fff" stroke="#fff" aria-label="ECHO"/>
  </g>
  <g stroke-opacity="0">
   <path d="m135.26 29.376s-11.989-0.10428-16.411 0c-4.422 0.10429-8.8628 3.3287-8.8907 8.7335-0.0392 7.5999-0.0392 11.967-0.0392 11.967h16.646c3.5724 0 8.8515-3.1701 8.8515-9.5313 0-7.5579-0.15664-11.169-0.15664-11.169z" fill="#ff009d" opacity=".66825"/>
   <path d="m135.3 43.926s-11.989-0.10429-16.411 0c-4.422 0.10429-8.8628 3.3287-8.8907 8.7335-0.0392 7.5999-0.0392 11.967-0.0392 11.967h16.646c3.5724 0 8.8515-3.1701 8.8515-9.5313 0-7.5579-0.15669-11.169-0.15669-11.169z" fill="#ff009d" opacity=".33412"/>
   <path d="m135.12 15.686s-11.903-0.10429-16.293 0c-4.3903 0.10427-8.7993 3.3287-8.827 8.7335-0.0389 7.5999-0.0389 11.967-0.0389 11.967h16.526c3.5468 0 8.7881-3.1701 8.7881-9.5313 0-7.5579-0.15556-11.169-0.15556-11.169z" fill="#fff"/>
  </g>
 </g>
</svg>
