<?xml version="1.0" encoding="UTF-8"?>
<!-- Created with Inkscape (http://www.inkscape.org/) -->
<svg width="128" height="128" version="1.1" viewBox="0 0 33.867 33.867" xmlns="http://www.w3.org/2000/svg">
 <path transform="scale(-1)" d="m-8.6525-26.943q0.20777 0.83108 0.20777 2.0777 0 1.1947-0.20777 2.0777 0.20777 0.83108 0.20777 2.0777 0 1.1947-0.20777 2.0777h-1.5583q0.20777 0.83108 0.20777 2.0777 0 1.1947-0.20777 2.0777h-1.5583q0.20777 0.83108 0.20777 2.0777 0 1.1947-0.20777 2.0777h-1.0389q0.20777 0.83108 0.20777 2.0777 0 1.1947-0.20777 2.0777h-2.0777q0.20777 0.83108 0.20777 2.0777 0 1.1947-0.20777 2.0777h-4.1554q-0.20777-0.88302-0.20777-2.0777 0-1.2466 0.20777-2.0777h-2.0777q-0.20777-0.88302-0.20777-2.0777 0-1.2466 0.20777-2.0777h-1.0389q-0.20777-0.88302-0.20777-2.0777 0-1.2466 0.20777-2.0777h-1.5583q-0.20777-0.88302-0.20777-2.0777 0-1.2466 0.20777-2.0777h-1.5583q-0.20777-0.88302-0.20777-2.0777 0-1.2466 0.20777-2.0777-0.20777-0.88302-0.20777-2.0777 0-1.2466 0.20777-2.0777-0.20777-0.88302-0.20777-2.0777 0-1.2466 0.20777-2.0777h4.1554q0.20777 0.83108 0.20777 2.0777 0 1.1947-0.20777 2.0777 0.20777 0.83108 0.20777 2.0777 0 1.1947-0.20777 2.0777 0.20777 0.83108 0.20777 2.0777 0 1.1947-0.20777 2.0777h1.5583q0.20777 0.83108 0.20777 2.0777 0 1.1947-0.20777 2.0777h1.5583q0.20777 0.83108 0.20777 2.0777 0 1.1947-0.20777 2.0777h2.0777q-0.20777-0.88302-0.20777-2.0777 0-1.2466 0.20777-2.0777h1.5583q-0.20777-0.88302-0.20777-2.0777 0-1.2466 0.20777-2.0777h1.5583q-0.20777-0.88302-0.20777-2.0777 0-1.2466 0.20777-2.0777-0.20777-0.88302-0.20777-2.0777 0-1.2466 0.20777-2.0777-0.20777-0.88302-0.20777-2.0777 0-1.2466 0.20777-2.0777h4.1554q0.20777 0.83108 0.20777 2.0777 0 1.1947-0.20777 2.0777z" fill="#fff" stroke-linecap="round" stroke-linejoin="round" stroke-width="9.4434" aria-label="V"/>
</svg>
