<?xml version="1.0" encoding="UTF-8"?>
<!-- Created with Inkscape (http://www.inkscape.org/) -->
<svg width="128" height="128" version="1.1" viewBox="0 0 33.867 33.867" xml:space="preserve" xmlns="http://www.w3.org/2000/svg"><g fill="none" stroke="#fff" stroke-linecap="round" stroke-linejoin="round" stroke-width="2"><path transform="scale(1.4111)" d="M 11.143,20.743 A 12,12 0 0 1 3.5,6 12,12 0 0 0 12,3 12,12 0 0 0 20.5,6 c 0.504,1.716 0.614,3.505 0.343,5.237"/><path transform="scale(1.4111)" d="m17.8 20.817-2.172 1.138a0.392 0.392 0 0 1-0.568-0.41l0.415-2.411-1.757-1.707a0.389 0.389 0 0 1 0.217-0.665l2.428-0.352 1.086-2.193a0.392 0.392 0 0 1 0.702 0l1.086 2.193 2.428 0.352a0.39 0.39 0 0 1 0.217 0.665l-1.757 1.707 0.414 2.41a0.39 0.39 0 0 1-0.567 0.411l-2.172-1.138"/></g></svg>
