<?xml version="1.0" encoding="UTF-8"?>
<!-- Created with Inkscape (http://www.inkscape.org/) -->
<svg width="128" height="128" version="1.1" viewBox="0 0 33.867 33.867" xml:space="preserve" xmlns="http://www.w3.org/2000/svg"><g fill="none" stroke="#fffffe" stroke-linecap="round" stroke-linejoin="round" stroke-width="3.3839"><path d="m1.692 8.6136a5.0805 5.0713 0 0 1 5.0805-5.0713h20.322a5.0805 5.0713 0 0 1 5.0805 5.0713v16.904a5.0805 5.0713 0 0 1-5.0805 5.0713h-20.322a5.0805 5.0713 0 0 1-5.0805-5.0713v-16.904"/><path d="m8.4659 13.685a3.387 3.3808 0 1 0 6.7739 0 3.387 3.3808 0 1 0-6.7739 0"/><path d="m22.014 10.304h3.387"/><path d="m22.014 17.066h3.387"/><path d="m8.4659 23.827h16.935"/></g></svg>
