<?xml version="1.0" encoding="UTF-8" standalone="no"?>
<!-- Created with Inkscape (http://www.inkscape.org/) -->

<svg
   width="128"
   height="128"
   viewBox="0 0 33.866666 33.866666"
   version="1.1"
   id="svg1"
   xml:space="preserve"
   inkscape:version="1.3.2 (091e20e, 2023-11-25, custom)"
   sodipodi:docname="log_book_icon.svg"
   xmlns:inkscape="http://www.inkscape.org/namespaces/inkscape"
   xmlns:sodipodi="http://sodipodi.sourceforge.net/DTD/sodipodi-0.dtd"
   xmlns="http://www.w3.org/2000/svg"
   xmlns:svg="http://www.w3.org/2000/svg"><sodipodi:namedview
     id="namedview1"
     pagecolor="#ffffff"
     bordercolor="#000000"
     borderopacity="0.25"
     inkscape:showpageshadow="2"
     inkscape:pageopacity="0.0"
     inkscape:pagecheckerboard="0"
     inkscape:deskcolor="#d1d1d1"
     inkscape:document-units="mm"
     showguides="true"
     inkscape:zoom="4"
     inkscape:cx="55.75"
     inkscape:cy="74.625"
     inkscape:window-width="1920"
     inkscape:window-height="1057"
     inkscape:window-x="-8"
     inkscape:window-y="-8"
     inkscape:window-maximized="1"
     inkscape:current-layer="layer1" /><defs
     id="defs1" /><g
     inkscape:label="Warstwa 1"
     inkscape:groupmode="layer"
     id="layer1"><path
       d="m 16.783674,4.2996113 a 6.078469,6.078469 0 0 1 6.070869,5.7745477 l 0.0075,0.303943 a 1.5196173,1.5196173 0 0 1 0.650398,0.145883 l 4.608998,-2.9450214 a 1.5196173,1.5196173 0 1 1 1.638148,2.5590334 l -4.581647,2.934385 a 10.895656,10.895656 0 0 1 0.72334,3.384187 h 4.558851 a 1.5196185,1.5196185 0 0 1 0,3.039237 H 25.90128 v 1.519615 a 9.1328998,9.1328998 0 0 1 -0.296304,2.317419 l 4.115125,2.455698 a 1.5204152,1.5204152 0 1 1 -1.55913,2.610701 l -3.820349,-2.280942 a 9.1207427,9.1207427 0 0 1 -6.037442,3.890218 v -8.993094 a 1.5196173,1.5196173 0 0 0 -3.039231,0 v 8.991578 A 9.1207427,9.1207427 0 0 1 9.2265073,26.116775 l -3.820315,2.283986 A 1.5204152,1.5204152 0 1 1 3.8470621,25.79006 L 7.9621877,23.334356 A 9.1328998,9.1328998 0 0 1 7.66597,21.015404 V 19.495788 H 3.1071181 a 1.5196183,1.5196183 0 0 1 0,-3.039236 H 7.667492 v -0.08357 A 10.637321,10.637321 0 0 1 8.3877877,13.070854 L 3.8076621,10.137991 A 1.5196173,1.5196173 0 1 1 5.4458105,7.5789579 l 4.6074755,2.9465371 0.03676,-0.01838 0.103325,-0.04078 0.02872,-0.0075 0.02412,-0.0092 0.04882,-0.01206 0.06076,-0.01953 0.05169,-0.01091 0.05169,-0.0063 0.0684,-0.01206 0.02297,-0.0015 0.02297,-0.003 0.132214,-0.0063 a 6.078469,6.078469 0 0 1 6.078467,-6.0784726 z m 0,3.0392365 A 3.0392346,3.0392346 0 0 0 13.744437,10.378084 H 19.82291 A 3.0392346,3.0392346 0 0 0 16.783674,7.3388478 Z"
       id="path2"
       style="stroke-width:1.51962;fill:#ffffff" /></g></svg>
