<?xml version="1.0" encoding="UTF-8" standalone="no"?>
<!-- Created with Inkscape (http://www.inkscape.org/) -->

<svg
   width="810"
   height="40"
   viewBox="0 0 214.3125 10.583333"
   version="1.1"
   id="svg1"
   inkscape:version="1.3.2 (091e20e, 2023-11-25, custom)"
   sodipodi:docname="top_decoration.svg"
   xmlns:inkscape="http://www.inkscape.org/namespaces/inkscape"
   xmlns:sodipodi="http://sodipodi.sourceforge.net/DTD/sodipodi-0.dtd"
   xmlns="http://www.w3.org/2000/svg"
   xmlns:svg="http://www.w3.org/2000/svg">
  <sodipodi:namedview
     id="namedview1"
     pagecolor="#ffffff"
     bordercolor="#000000"
     borderopacity="0.25"
     inkscape:showpageshadow="2"
     inkscape:pageopacity="0.0"
     inkscape:pagecheckerboard="0"
     inkscape:deskcolor="#d1d1d1"
     inkscape:document-units="mm"
     showguides="true"
     inkscape:zoom="1.0242632"
     inkscape:cx="319.25387"
     inkscape:cy="-111.78767"
     inkscape:window-width="1920"
     inkscape:window-height="1057"
     inkscape:window-x="-8"
     inkscape:window-y="-8"
     inkscape:window-maximized="1"
     inkscape:current-layer="layer1">
    <sodipodi:guide
       position="52.857863,52.884377"
       orientation="0,-1"
       id="guide3"
       inkscape:locked="false" />
  </sodipodi:namedview>
  <defs
     id="defs1">
    <rect
       x="22.781765"
       y="29.685329"
       width="499.81812"
       height="129.09666"
       id="rect1" />
    <rect
       x="22.781765"
       y="29.685329"
       width="499.81812"
       height="129.09666"
       id="rect1-7" />
    <rect
       x="22.781765"
       y="29.685329"
       width="499.81812"
       height="129.09666"
       id="rect1-7-9" />
    <rect
       x="22.781765"
       y="29.685329"
       width="499.81812"
       height="129.09666"
       id="rect1-7-9-2" />
  </defs>
  <g
     inkscape:label="Warstwa 1"
     inkscape:groupmode="layer"
     id="layer1">
    <path
       style="font-size:29.3333px;line-height:0px;font-family:Xirod;-inkscape-font-specification:Xirod;white-space:pre;fill:#ffffff;stroke-width:15.0009;stroke-linecap:round;stroke-linejoin:round"
       d="m 50.530551,15.502281 h -26.04797 v 10.325321 c 0,6.277327 3.901329,10.207989 10.266655,10.207989 H 50.530551 V 31.166263 H 34.837236 c -3.050663,0 -4.487995,-1.085332 -5.103994,-3.079996 h 20.26931 V 23.480939 H 29.469242 V 20.342275 H 50.530551 Z M 78.954512,31.166263 H 58.303869 v -5.338661 c 0,-3.666662 1.789332,-5.485327 5.367994,-5.485327 H 78.954512 V 15.502281 H 63.583863 c -6.541325,0 -10.266654,3.813329 -10.266654,10.237322 V 36.035591 H 78.954512 Z M 108.05314,15.502281 h -4.98666 v 7.978658 H 87.138496 v -7.978658 h -4.986661 v 20.53331 h 4.986661 V 28.1156 h 15.927984 v 7.919991 h 4.98666 z m 25.9013,10.237322 c 0,4.253328 -1.34933,5.42666 -5.36799,5.42666 h -11.90932 v -5.338661 c 0,-4.223995 1.26133,-5.485327 5.36799,-5.485327 h 11.90932 z M 121.95712,15.502281 c -6.48266,0 -10.26665,3.959995 -10.26665,10.237322 v 10.295988 h 17.01331 c 6.51199,0 10.23732,-3.813329 10.23732,-10.207989 V 15.502281 Z"
       id="text1"
       transform="matrix(0.46492764,0,0,0.46492764,-11.330504,-6.6098431)"
       aria-label="Echo" />
    <path
       d="m 50.530551,15.502281 h -26.04797 v 10.325321 c 0,6.277327 3.901329,10.207989 10.266655,10.207989 H 50.530551 V 31.166263 H 34.837236 c -3.050663,0 -4.487995,-1.085332 -5.103994,-3.079996 h 20.26931 V 23.480939 H 29.469242 V 20.342275 H 50.530551 Z M 78.954512,31.166263 H 58.303869 v -5.338661 c 0,-3.666662 1.789332,-5.485327 5.367994,-5.485327 H 78.954512 V 15.502281 H 63.583863 c -6.541325,0 -10.266654,3.813329 -10.266654,10.237322 V 36.035591 H 78.954512 Z M 108.05314,15.502281 h -4.98666 v 7.978658 H 87.138496 v -7.978658 h -4.986661 v 20.53331 h 4.986661 V 28.1156 h 15.927984 v 7.919991 h 4.98666 z m 25.9013,10.237322 c 0,4.253328 -1.34933,5.42666 -5.36799,5.42666 h -11.90932 v -5.338661 c 0,-4.223995 1.26133,-5.485327 5.36799,-5.485327 h 11.90932 z M 121.95712,15.502281 c -6.48266,0 -10.26665,3.959995 -10.26665,10.237322 v 10.295988 h 17.01331 c 6.51199,0 10.23732,-3.813329 10.23732,-10.207989 V 15.502281 Z"
       id="text1-6"
       style="font-size:29.3333px;line-height:0px;font-family:Xirod;-inkscape-font-specification:Xirod;white-space:pre;opacity:0.75443;fill:none;stroke:#ffffff;stroke-width:1.18835;stroke-linecap:round"
       transform="matrix(0.44133657,0,0,0.44133657,45.349092,-6.0182219)"
       aria-label="Echo" />
    <path
       d="m 50.530551,15.502281 h -26.04797 v 10.325321 c 0,6.277327 3.901329,10.207989 10.266655,10.207989 H 50.530551 V 31.166263 H 34.837236 c -3.050663,0 -4.487995,-1.085332 -5.103994,-3.079996 h 20.26931 V 23.480939 H 29.469242 V 20.342275 H 50.530551 Z M 78.954512,31.166263 H 58.303869 v -5.338661 c 0,-3.666662 1.789332,-5.485327 5.367994,-5.485327 H 78.954512 V 15.502281 H 63.583863 c -6.541325,0 -10.266654,3.813329 -10.266654,10.237322 V 36.035591 H 78.954512 Z M 108.05314,15.502281 h -4.98666 v 7.978658 H 87.138496 v -7.978658 h -4.986661 v 20.53331 h 4.986661 V 28.1156 h 15.927984 v 7.919991 h 4.98666 z m 25.9013,10.237322 c 0,4.253328 -1.34933,5.42666 -5.36799,5.42666 h -11.90932 v -5.338661 c 0,-4.223995 1.26133,-5.485327 5.36799,-5.485327 h 11.90932 z M 121.95712,15.502281 c -6.48266,0 -10.26665,3.959995 -10.26665,10.237322 v 10.295988 h 17.01331 c 6.51199,0 10.23732,-3.813329 10.23732,-10.207989 V 15.502281 Z"
       id="text1-6-8"
       style="font-size:29.3333px;line-height:0px;font-family:Xirod;-inkscape-font-specification:Xirod;white-space:pre;opacity:0.503797;fill:none;stroke:#ffffff;stroke-width:1.18835;stroke-linecap:round"
       transform="matrix(0.44133657,0,0,0.44133657,99.016806,-6.0348399)"
       aria-label="Echo" />
    <path
       d="m 50.530551,15.502281 h -26.04797 v 10.325321 c 0,6.277327 3.901329,10.207989 10.266655,10.207989 H 50.530551 V 31.166263 H 34.837236 c -3.050663,0 -4.487995,-1.085332 -5.103994,-3.079996 h 20.26931 V 23.480939 H 29.469242 V 20.342275 H 50.530551 Z M 78.954512,31.166263 H 58.303869 v -5.338661 c 0,-3.666662 1.789332,-5.485327 5.367994,-5.485327 H 78.954512 V 15.502281 H 63.583863 c -6.541325,0 -10.266654,3.813329 -10.266654,10.237322 V 36.035591 H 78.954512 Z M 108.05314,15.502281 h -4.98666 v 7.978658 H 87.138496 v -7.978658 h -4.986661 v 20.53331 h 4.986661 V 28.1156 h 15.927984 v 7.919991 h 4.98666 z m 25.9013,10.237322 c 0,4.253328 -1.34933,5.42666 -5.36799,5.42666 h -11.90932 v -5.338661 c 0,-4.223995 1.26133,-5.485327 5.36799,-5.485327 h 11.90932 z M 121.95712,15.502281 c -6.48266,0 -10.26665,3.959995 -10.26665,10.237322 v 10.295988 h 17.01331 c 6.51199,0 10.23732,-3.813329 10.23732,-10.207989 V 15.502281 Z"
       id="text1-6-8-2"
       style="font-size:29.3333px;line-height:0px;font-family:Xirod;-inkscape-font-specification:Xirod;white-space:pre;opacity:0.255696;fill:none;stroke:#ffffff;stroke-width:1.18835;stroke-linecap:round"
       transform="matrix(0.44133657,0,0,0.44133657,152.684,-6.0383209)"
       aria-label="Echo" />
  </g>
</svg>
